PathFileType	4	(X / Y / Z)	Demo_140333_11_September_2019	Demo_140333_11_September_2019.trc
DataRate	CameraRate	NumFrames	NumMarkers	Units	OrigDataRate	OrigDataStartFrame	OrigNumFrames
50	50	12	25	m	50	770	960
Frame#	Time		SpineBase		SpineMid		Neck		Head		ShoulderLeft		ElbowLeft		WristLeft		HandLeft		ShoulderRight		ElbowRight		WristRight		HandRight		HipLeft		KneeLeft		AnkleLeft		FootLeft		HipRight		KneeRight		AnkleRight		FootRight		SpineShoulder		HandTipLeft		LeftThumb		HandTipRight		ThumbRight		
X1	Y1	Z1	X2	Y2	Z2	X3	Y3	Z3	X4	Y4	Z4	X5	Y5	Z5	X6	Y6	Z6	X7	Y7	Z7	X8	Y8	Z8	X9	Y9	Z9	X10	Y10	Z10	X11	Y11	Z11	X12	Y12	Z12	X13	Y13	Z13	X14	Y14	Z14	X15	Y15	Z15	X16	Y16	Z16	X17	Y17	Z17	X18	Y18	Z18	X19	Y19	Z19	X20	Y20	Z20	X21	Y21	Z21	X22	Y22	Z22	X23	Y23	Z23	X24	Y24	Z24	X25	Y25	Z25	
721	61.990	0.069	0.779	1.737	0.070	1.065	1.706	0.070	1.340	1.661	0.071	1.483	1.631	-0.081	1.232	1.657	-0.139	0.978	1.692	-0.188	0.787	1.643	-0.190	0.731	1.621	0.237	1.227	1.641	0.320	0.943	1.655	0.417	0.773	1.689	0.419	0.702	1.693	-0.006	0.787	1.704	-0.081	0.480	1.751	-0.114	0.192	1.864	-0.112	0.145	1.744	0.141	0.780	1.703	0.125	0.481	1.765	0.087	0.219	1.856	0.085	0.178	1.737	0.070	1.273	1.675	-0.179	0.659	1.630	-0.171	0.742	1.598	0.426	0.588	1.718	0.411	0.647	1.670
722	62.007	0.069	0.779	1.737	0.070	1.065	1.706	0.070	1.340	1.661	0.071	1.483	1.631	-0.081	1.232	1.657	-0.139	0.978	1.692	-0.188	0.787	1.643	-0.190	0.731	1.621	0.237	1.227	1.641	0.320	0.943	1.655	0.417	0.773	1.689	0.419	0.702	1.693	-0.006	0.787	1.704	-0.081	0.480	1.751	-0.114	0.192	1.864	-0.112	0.145	1.744	0.141	0.780	1.703	0.125	0.481	1.765	0.087	0.219	1.856	0.085	0.178	1.737	0.070	1.273	1.675	-0.179	0.659	1.630	-0.171	0.742	1.598	0.426	0.588	1.718	0.411	0.647	1.670
723	62.024	0.071	0.776	1.736	0.071	1.064	1.705	0.071	1.339	1.660	0.070	1.483	1.630	-0.080	1.231	1.656	-0.138	0.978	1.690	-0.188	0.787	1.635	-0.193	0.735	1.613	0.235	1.222	1.639	0.286	0.917	1.659	0.371	0.750	1.697	0.343	0.650	1.702	-0.004	0.784	1.703	-0.081	0.479	1.751	-0.116	0.169	1.873	-0.117	0.133	1.782	0.142	0.777	1.702	0.125	0.479	1.765	0.087	0.217	1.855	0.085	0.177	1.737	0.071	1.272	1.673	-0.180	0.660	1.622	-0.172	0.745	1.590	0.344	0.605	1.708	0.348	0.653	1.680
724	62.041	0.071	0.776	1.736	0.071	1.064	1.705	0.071	1.339	1.660	0.070	1.483	1.630	-0.080	1.231	1.656	-0.138	0.978	1.690	-0.188	0.787	1.635	-0.193	0.735	1.613	0.235	1.222	1.639	0.286	0.917	1.659	0.371	0.750	1.697	0.343	0.650	1.702	-0.004	0.784	1.703	-0.081	0.479	1.751	-0.116	0.169	1.873	-0.117	0.133	1.782	0.142	0.777	1.702	0.125	0.479	1.765	0.087	0.217	1.855	0.085	0.177	1.737	0.071	1.272	1.673	-0.180	0.660	1.622	-0.172	0.745	1.590	0.344	0.605	1.708	0.348	0.653	1.680
725	62.057	0.072	0.774	1.735	0.072	1.063	1.704	0.072	1.339	1.658	0.070	1.483	1.629	-0.080	1.231	1.654	-0.138	0.977	1.687	-0.189	0.788	1.629	-0.195	0.740	1.606	0.233	1.218	1.637	0.276	0.918	1.659	0.328	0.735	1.695	0.313	0.640	1.705	-0.002	0.782	1.703	-0.080	0.479	1.750	-0.118	0.157	1.877	-0.119	0.127	1.801	0.144	0.774	1.700	0.126	0.477	1.765	0.088	0.216	1.855	0.084	0.176	1.737	0.072	1.271	1.672	-0.182	0.663	1.613	-0.172	0.747	1.585	0.308	0.581	1.720	0.300	0.617	1.689
726	62.074	0.072	0.774	1.735	0.072	1.063	1.704	0.072	1.339	1.658	0.070	1.483	1.629	-0.080	1.231	1.654	-0.138	0.977	1.687	-0.189	0.788	1.629	-0.195	0.740	1.606	0.233	1.218	1.637	0.276	0.918	1.659	0.328	0.735	1.695	0.313	0.640	1.705	-0.002	0.782	1.703	-0.080	0.479	1.750	-0.118	0.157	1.877	-0.119	0.127	1.801	0.144	0.774	1.700	0.126	0.477	1.765	0.088	0.216	1.855	0.084	0.176	1.737	0.072	1.271	1.672	-0.182	0.663	1.613	-0.172	0.747	1.585	0.308	0.581	1.720	0.300	0.617	1.689
727	62.091	0.074	0.772	1.734	0.073	1.061	1.702	0.073	1.338	1.657	0.070	1.483	1.628	-0.079	1.231	1.653	-0.137	0.977	1.685	-0.190	0.790	1.623	-0.196	0.744	1.600	0.232	1.215	1.635	0.271	0.921	1.660	0.333	0.747	1.695	0.349	0.701	1.698	-0.001	0.780	1.702	-0.079	0.479	1.750	-0.117	0.164	1.874	-0.119	0.132	1.790	0.146	0.772	1.699	0.126	0.475	1.765	0.088	0.219	1.852	0.084	0.179	1.734	0.073	1.271	1.671	-0.184	0.668	1.603	-0.173	0.750	1.579	0.318	0.609	1.713	0.324	0.674	1.676
728	62.107	0.074	0.772	1.734	0.073	1.061	1.702	0.073	1.338	1.657	0.070	1.483	1.628	-0.079	1.231	1.653	-0.137	0.977	1.685	-0.190	0.790	1.623	-0.196	0.744	1.600	0.232	1.215	1.635	0.271	0.921	1.660	0.333	0.747	1.695	0.349	0.701	1.698	-0.001	0.780	1.702	-0.079	0.479	1.750	-0.117	0.164	1.874	-0.119	0.132	1.790	0.146	0.772	1.699	0.126	0.475	1.765	0.088	0.219	1.852	0.084	0.179	1.734	0.073	1.271	1.671	-0.184	0.668	1.603	-0.173	0.750	1.579	0.318	0.609	1.713	0.324	0.674	1.676
729	62.124	0.075	0.770	1.733	0.074	1.060	1.701	0.073	1.338	1.656	0.070	1.482	1.626	-0.078	1.230	1.651	-0.137	0.978	1.683	-0.190	0.792	1.619	-0.197	0.747	1.596	0.231	1.213	1.634	0.284	0.938	1.661	0.384	0.784	1.698	0.397	0.721	1.694	0.000	0.779	1.701	-0.079	0.478	1.750	-0.116	0.170	1.872	-0.118	0.135	1.781	0.147	0.770	1.697	0.127	0.474	1.764	0.088	0.222	1.850	0.084	0.183	1.732	0.074	1.270	1.670	-0.185	0.671	1.596	-0.173	0.752	1.575	0.373	0.644	1.708	0.365	0.704	1.670
730	62.141	0.075	0.770	1.733	0.074	1.060	1.701	0.073	1.338	1.656	0.070	1.482	1.626	-0.078	1.230	1.651	-0.137	0.978	1.683	-0.190	0.792	1.619	-0.197	0.747	1.596	0.231	1.213	1.634	0.284	0.938	1.661	0.384	0.784	1.698	0.397	0.721	1.694	0.000	0.779	1.701	-0.079	0.478	1.750	-0.116	0.170	1.872	-0.118	0.135	1.781	0.147	0.770	1.697	0.127	0.474	1.764	0.088	0.222	1.850	0.084	0.183	1.732	0.074	1.270	1.670	-0.185	0.671	1.596	-0.173	0.752	1.575	0.373	0.644	1.708	0.365	0.704	1.670
731	62.157	0.075	0.769	1.732	0.075	1.059	1.700	0.074	1.337	1.655	0.071	1.482	1.625	-0.077	1.230	1.650	-0.137	0.978	1.682	-0.191	0.793	1.616	-0.198	0.749	1.593	0.231	1.212	1.634	0.328	0.977	1.663	0.426	0.815	1.691	0.445	0.797	1.682	0.000	0.777	1.701	-0.079	0.478	1.750	-0.115	0.175	1.869	-0.118	0.137	1.773	0.147	0.769	1.695	0.129	0.472	1.763	0.088	0.227	1.848	0.084	0.186	1.730	0.074	1.270	1.669	-0.186	0.673	1.590	-0.174	0.754	1.571	0.454	0.717	1.688	0.438	0.787	1.652
732	62.174	0.075	0.769	1.732	0.075	1.059	1.700	0.074	1.337	1.655	0.071	1.482	1.625	-0.077	1.230	1.650	-0.137	0.978	1.682	-0.191	0.793	1.616	-0.198	0.749	1.593	0.231	1.212	1.634	0.328	0.977	1.663	0.426	0.815	1.691	0.445	0.797	1.682	0.000	0.777	1.701	-0.079	0.478	1.750	-0.115	0.175	1.869	-0.118	0.137	1.773	0.147	0.769	1.695	0.129	0.472	1.763	0.088	0.227	1.848	0.084	0.186	1.730	0.074	1.270	1.669	-0.186	0.673	1.590	-0.174	0.754	1.571	0.454	0.717	1.688	0.438	0.787	1.652
